# xmcd
#
# Track frame offsets: 
#        150
#        23154
#        45724
#        60486
#        77096
#        96409
#        125963
#        144163
#        165888
#        187799
#
# Disc length: 2717 seconds
#
# Revision: 0
# Processed by: cddbd v1.5.2PL0 Copyright (c) Steve Scherf et al.
# Submitted via: ExactAudioCopyFreeDBPlugin 1.0
#
DISCID=790a9b0a
DTITLE=Ivan Marcio - Chicago Blues Sessions Vol. 2
DYEAR=2012
DGENRE=Blues
TTITLE0=Key To The Highway
TTITLE1=Four Women In My Life
TTITLE2=Rock Me Baby
TTITLE3=Come Back Baby
TTITLE4=Every Day I Have The Blues - Route 66
TTITLE5=Little Red Rooster
TTITLE6=My Baby
TTITLE7=Walking By Myself
TTITLE8=What Have I Done
TTITLE9=Gabi Take A Train
EXTD=
EXTT0=
EXTT1=
EXTT2=
EXTT3=
EXTT4=
EXTT5=
EXTT6=
EXTT7=
EXTT8=
EXTT9=
PLAYORDER=
